<?xml version="1.0" encoding="UTF-8" standalone="no"?>
<!-- Created with Inkscape (http://www.inkscape.org/) -->

<svg
   width="70mm"
   height="127mm"
   viewBox="0 0 70 127"
   version="1.1"
   id="svg5"
   xml:space="preserve"
   inkscape:version="1.2.2 (732a01da63, 2022-12-09)"
   sodipodi:docname="LOGO_SNOX.svg"
   xmlns:inkscape="http://www.inkscape.org/namespaces/inkscape"
   xmlns:sodipodi="http://sodipodi.sourceforge.net/DTD/sodipodi-0.dtd"
   xmlns:xlink="http://www.w3.org/1999/xlink"
   xmlns="http://www.w3.org/2000/svg"
   xmlns:svg="http://www.w3.org/2000/svg"><sodipodi:namedview
     id="namedview7"
     pagecolor="#ffffff"
     bordercolor="#666666"
     borderopacity="1.0"
     inkscape:showpageshadow="2"
     inkscape:pageopacity="0.0"
     inkscape:pagecheckerboard="0"
     inkscape:deskcolor="#d1d1d1"
     inkscape:document-units="mm"
     showgrid="false"
     inkscape:zoom="0.5946522"
     inkscape:cx="275.79146"
     inkscape:cy="433.02623"
     inkscape:window-width="1260"
     inkscape:window-height="770"
     inkscape:window-x="-6"
     inkscape:window-y="-6"
     inkscape:window-maximized="1"
     inkscape:current-layer="layer1" /><defs
     id="defs2"><linearGradient
       inkscape:collect="always"
       id="linearGradient2498"><stop
         style="stop-color:#c2f1ff;stop-opacity:1;"
         offset="0"
         id="stop2494" /><stop
         style="stop-color:#c2f1ff;stop-opacity:0.49803922;"
         offset="0.60183519"
         id="stop2502" /><stop
         style="stop-color:#c2f1ff;stop-opacity:0;"
         offset="1"
         id="stop2496" /></linearGradient><radialGradient
       inkscape:collect="always"
       xlink:href="#linearGradient2498"
       id="radialGradient2500"
       cx="205.326"
       cy="110.17499"
       fx="205.326"
       fy="110.17499"
       r="1.816"
       gradientTransform="matrix(1.7437816,-1.7026443,1.7904534,1.8337121,-349.77297,257.61787)"
       gradientUnits="userSpaceOnUse" /></defs><g
     inkscape:label="Capa 1"
     inkscape:groupmode="layer"
     id="layer1"><g
       id="g2508"
       transform="matrix(1.2178453,0,0,1.2178453,-211.01983,-61.670098)"><g
         id="g310"
         transform="matrix(0.6610463,0,0,0.8173362,155.33733,39.005156)"><path
           style="fill:#1db1a5;stroke-width:0.176389"
           d="m 85.511729,141.75059 c 0.315295,-0.0391 0.831233,-0.0391 1.146528,0 0.315295,0.0391 0.05733,0.0712 -0.573264,0.0712 -0.63059,0 -0.888559,-0.032 -0.573264,-0.0712 z m 14.684371,-2.68032 c 0,-0.0892 0.11816,-0.38681 0.26257,-0.66146 0.14442,-0.27465 0.62823,-1.37249 1.07514,-2.43964 0.44692,-1.06716 0.96376,-2.27762 1.14854,-2.68993 0.18479,-0.41231 0.49965,-1.12669 0.6997,-1.5875 0.20005,-0.46082 0.47576,-1.07598 0.61269,-1.36702 0.71,-1.50913 0.74099,-1.31076 -0.7163,-4.58611 -0.12949,-0.29104 -0.60178,-1.40229 -1.04953,-2.46944 -0.44775,-1.06716 -0.88964,-2.07776 -0.98199,-2.24579 -0.15581,-0.28352 -0.87414,-2.10215 -0.87434,-2.21363 -5e-5,-0.0273 0.9268,-0.0273 2.05967,0 l 2.05975,0.0497 0.30918,0.79374 c 1.42829,3.66675 1.86723,4.73908 2.11255,5.16088 l 0.283,0.48657 0.2816,-0.66296 c 0.15488,-0.36463 0.64727,-1.53608 1.09419,-2.60324 0.44692,-1.06715 0.93993,-2.23793 1.09557,-2.60173 l 0.28298,-0.66146 h 1.82529 c 1.00392,0 1.8253,0.0301 1.8253,0.0669 0,0.072 -0.74368,1.80172 -1.14675,2.66715 -0.13555,0.29104 -0.45561,1.0451 -0.71124,1.67569 -0.25563,0.63059 -0.65138,1.54341 -0.87944,2.02847 -0.93666,1.9922 -1.4959,3.32671 -1.4959,3.56962 0,0.14169 0.12958,0.54743 0.28796,0.90164 0.15838,0.35421 0.42956,0.96152 0.60262,1.34958 0.17306,0.38805 0.72106,1.65805 1.21778,2.82222 0.49672,1.16417 1.01341,2.35479 1.1482,2.64583 0.34021,0.73459 0.74337,1.67918 0.96101,2.25161 l 0.18342,0.48242 h -2.07559 -2.07558 l -0.94738,-2.42535 c -0.88976,-2.27781 -1.27092,-3.2246 -1.72202,-4.27743 -0.17881,-0.41732 -0.19582,-0.42205 -0.31705,-0.0882 -0.0705,0.19403 -0.27271,0.67028 -0.44945,1.05833 -0.17673,0.38806 -0.43654,1.02306 -0.57734,1.41111 -0.1408,0.38806 -0.59359,1.51915 -1.0062,2.51354 l -0.75019,1.80799 h -1.82621 c -1.00441,0 -1.82621,-0.0729 -1.82621,-0.16209 z m -24.187773,-1.5577 c -0.219405,-0.27976 -0.213166,-0.286 0.0666,-0.0666 0.169775,0.13315 0.308681,0.27206 0.308681,0.30868 0,0.14518 -0.144849,0.0517 -0.375278,-0.24208 z m -2.059779,-3.83646 c 0.0036,-0.29104 0.04313,-0.38875 0.08785,-0.21713 0.04472,0.17162 0.04178,0.40975 -0.0065,0.52917 -0.04832,0.11942 -0.08491,-0.021 -0.08131,-0.31204 z m 8.751984,-0.38508 c 0.127329,-0.051 0.279467,-0.0447 0.338079,0.0139 0.05861,0.0586 -0.04557,0.1003 -0.231511,0.0926 -0.205484,-0.008 -0.247279,-0.0503 -0.106568,-0.10656 z m 1.5875,-0.17638 c 0.127329,-0.051 0.279467,-0.0447 0.338079,0.0139 0.05861,0.0586 -0.04557,0.1003 -0.231511,0.0927 -0.205484,-0.008 -0.247279,-0.0503 -0.106568,-0.10657 z m -10.183557,-1.39352 c 0.0085,-0.20548 0.05026,-0.24727 0.106568,-0.10656 0.05095,0.12733 0.04469,0.27946 -0.01392,0.33808 -0.05861,0.0586 -0.100301,-0.0456 -0.09264,-0.23152 z m 0.352778,-2.29305 c 0.0085,-0.20548 0.05026,-0.24728 0.106567,-0.10657 0.05095,0.12733 0.04469,0.27947 -0.01392,0.33808 -0.05861,0.0586 -0.100302,-0.0456 -0.09264,-0.23151 z m 0.176389,-1.76389 c 0.0085,-0.20548 0.05026,-0.24728 0.106567,-0.10657 0.05095,0.12733 0.04469,0.27947 -0.01392,0.33808 -0.05861,0.0586 -0.100302,-0.0456 -0.09264,-0.23151 z m 14.497416,-2.66518 c 0.171621,-0.0447 0.409746,-0.0418 0.529167,0.007 0.11942,0.0483 -0.021,0.0849 -0.312038,0.0813 -0.291041,-0.004 -0.38875,-0.0431 -0.217129,-0.0879 z m -13.968249,-1.21537 c 0.0085,-0.20549 0.05026,-0.24728 0.106567,-0.10657 0.05095,0.12733 0.04469,0.27946 -0.01392,0.33808 -0.05861,0.0586 -0.100302,-0.0456 -0.09264,-0.23151 z m 0.21712,-2.80753 c 0.0011,-0.58208 0.03392,-0.79894 0.07318,-0.48191 0.03926,0.31703 0.03845,0.79328 -0.0018,1.05833 -0.04025,0.26506 -0.07237,0.006 -0.07138,-0.57642 z m -8.191046,-2.16076 c -0.219405,-0.27977 -0.213166,-0.286 0.0666,-0.0666 0.169775,0.13315 0.308681,0.27205 0.308681,0.30868 0,0.14518 -0.144849,0.0517 -0.375278,-0.24208 z m -21.872221,-1.23472 c -0.219405,-0.27977 -0.213166,-0.28601 0.0666,-0.0666 0.293819,0.23043 0.387258,0.37528 0.242083,0.37528 -0.03663,0 -0.175534,-0.13891 -0.308681,-0.30868 z m 20.46111,-0.70556 c -0.219405,-0.27976 -0.213166,-0.286 0.0666,-0.0666 0.169775,0.13315 0.308681,0.27206 0.308681,0.30868 0,0.14518 -0.144849,0.0517 -0.375278,-0.24208 z m -22.577775,-1.76389 c -0.219405,-0.27976 -0.213167,-0.286 0.0666,-0.0666 0.293819,0.23043 0.387258,0.37528 0.242084,0.37528 -0.03663,0 -0.175534,-0.1389 -0.30868,-0.30868 z m -0.78801,-0.97014 -0.336019,-0.39687 0.396875,0.33602 c 0.372965,0.31577 0.477174,0.45773 0.336019,0.45773 -0.03347,0 -0.212065,-0.1786 -0.396875,-0.39688 z m 19.838007,-2.02847 c -0.219404,-0.27976 -0.213165,-0.286 0.0666,-0.0666 0.169774,0.13315 0.30868,0.27206 0.30868,0.30868 0,0.14518 -0.144848,0.0517 -0.375278,-0.24208 z m -21.87222,-0.35278 c -0.219405,-0.27976 -0.213166,-0.286 0.0666,-0.0666 0.169774,0.13314 0.308681,0.27205 0.308681,0.30868 0,0.14517 -0.144849,0.0517 -0.375278,-0.24209 z m 9.605379,-1.01423 c 7.06e-4,-0.6791 0.03266,-0.9353 0.07085,-0.56933 0.03818,0.36596 0.03754,0.92159 -0.0014,1.23472 -0.03897,0.31313 -0.07021,0.0137 -0.06943,-0.66539 z m 10.85573,-0.57327 c -0.219404,-0.27976 -0.213165,-0.286 0.0666,-0.0666 0.169774,0.13314 0.30868,0.27205 0.30868,0.30868 0,0.14517 -0.144848,0.0517 -0.375278,-0.24209 z m 43.896497,-0.0596 c -1.63201,-0.38449 -2.8406,-1.41106 -3.40817,-2.89488 -0.31054,-0.81184 -0.33736,-1.40777 -0.33736,-7.496529 v -6.614583 l 0.49434,-1.006757 c 0.55,-1.120101 1.51616,-1.993577 2.62934,-2.377099 1.78724,-0.615754 4.82559,-0.456452 6.39698,0.335396 0.83229,0.4194 1.10753,0.686707 1.79102,1.739399 l 0.50638,0.779895 v 7.143749 c 0,6.614289 -0.0244,7.194769 -0.32974,7.832149 -0.383,0.79959 -1.26065,1.72622 -1.98586,2.0967 -1.17946,0.60252 -4.14983,0.84119 -5.75693,0.46256 z m 3.40799,-2.9883 c 0.82696,-0.44258 0.87218,-0.82182 0.87218,-7.314914 0,-5.098429 -0.0439,-6.187731 -0.26641,-6.618115 -0.34685,-0.670739 -0.76277,-0.878413 -1.75923,-0.878413 -1.12958,0 -1.813,0.387691 -1.94413,1.10287 -0.0578,0.315054 -0.0812,3.415083 -0.052,6.888952 l 0.053,6.31614 0.44097,0.33862 c 0.49325,0.37877 2.07269,0.47682 2.6556,0.16486 z m -69.882262,2.16599 c -0.219405,-0.27977 -0.213166,-0.286 0.0666,-0.0666 0.29382,0.23043 0.387259,0.37528 0.242084,0.37528 -0.03663,0 -0.175534,-0.13891 -0.30868,-0.30868 z m 10.26698,-0.14699 c 0.0085,-0.20549 0.05026,-0.24728 0.106567,-0.10657 0.05095,0.12733 0.04469,0.27947 -0.01392,0.33808 -0.05861,0.0586 -0.100302,-0.0456 -0.09264,-0.23151 z m 13.369129,-0.20579 c -0.219405,-0.27976 -0.213166,-0.286 0.0666,-0.0666 0.169774,0.13315 0.308681,0.27206 0.308681,0.30868 0,0.14518 -0.144849,0.0517 -0.375278,-0.24208 z m -26.458331,-2.99861 c -0.219405,-0.27976 -0.213166,-0.286 0.0666,-0.0666 0.29382,0.23043 0.387258,0.37528 0.242084,0.37528 -0.03663,0 -0.175534,-0.13891 -0.30868,-0.30868 z m 14.703698,-1.27882 c 0,-0.33955 0.0363,-0.47845 0.08067,-0.30868 0.04437,0.16977 0.04437,0.44759 0,0.61736 -0.04437,0.16977 -0.08067,0.0309 -0.08067,-0.30868 z m -16.820365,-1.19062 c -0.219405,-0.27977 -0.213166,-0.28601 0.0666,-0.0666 0.169774,0.13314 0.30868,0.27205 0.30868,0.30868 0,0.14517 -0.144848,0.0517 -0.375277,-0.24208 z m -0.705555,-0.88195 c -0.219405,-0.27976 -0.213166,-0.286 0.0666,-0.0666 0.169775,0.13315 0.308681,0.27206 0.308681,0.30868 0,0.14518 -0.144848,0.0517 -0.375277,-0.24208 z m -3.844131,-5.262267 c 0.0085,-0.205484 0.05026,-0.24728 0.106568,-0.106569 0.05095,0.12733 0.04469,0.279467 -0.01392,0.338079 -0.05861,0.05861 -0.100302,-0.04557 -0.09264,-0.23151 z m -0.352778,-2.822222 c 0.0085,-0.205484 0.05026,-0.24728 0.106569,-0.106569 0.05095,0.12733 0.04469,0.279467 -0.01393,0.338079 -0.05861,0.05861 -0.100301,-0.04557 -0.09264,-0.23151 z m -0.352777,-2.822222 c 0.0085,-0.205484 0.05026,-0.24728 0.106568,-0.106569 0.05095,0.12733 0.04469,0.279467 -0.01393,0.338079 -0.05861,0.05861 -0.100302,-0.04557 -0.09264,-0.23151 z m 52.953275,-0.204038 c 0.561372,-0.03511 1.434497,-0.03478 1.940278,7.06e-4 0.505781,0.03551 0.04648,0.06424 -1.020676,0.06384 -1.067153,-3.52e-4 -1.480974,-0.02945 -0.919602,-0.06456 z m -8.363315,-0.530916 c -0.219405,-0.279764 -0.213166,-0.286003 0.0666,-0.0666 0.293819,0.230429 0.387258,0.375278 0.242083,0.375278 -0.03663,0 -0.175534,-0.138906 -0.308681,-0.30868 z M 27.7142,88.858637 c 0.0085,-0.205485 0.05026,-0.24728 0.106568,-0.106569 0.05095,0.12733 0.04469,0.279467 -0.01393,0.338079 -0.05861,0.05861 -0.100302,-0.04557 -0.09264,-0.23151 z m 56.064387,-1.087732 -0.427621,-0.48507 0.485069,0.427622 c 0.453371,0.399677 0.56596,0.542517 0.427621,0.542517 -0.03159,0 -0.249876,-0.218281 -0.485069,-0.485069 z m -1.596649,-1.411111 c -0.219405,-0.279764 -0.213166,-0.286003 0.0666,-0.0666 0.29382,0.230429 0.387258,0.375278 0.242083,0.375278 -0.03663,0 -0.175533,-0.138906 -0.30868,-0.30868 z M 27.381884,86.051113 c 0.0036,-0.291042 0.04313,-0.38875 0.08785,-0.217129 0.04472,0.171621 0.04178,0.409746 -0.0065,0.529166 -0.04832,0.119421 -0.08491,-0.02099 -0.08131,-0.312037 z m 52.777323,-1.719791 -0.336019,-0.396875 0.396875,0.336019 c 0.218281,0.184809 0.396875,0.363403 0.396875,0.396875 0,0.141155 -0.141956,0.03694 -0.457731,-0.336019 z M 27.185033,84.096137 c 0.0085,-0.205484 0.05026,-0.24728 0.106569,-0.106569 0.05095,0.12733 0.04469,0.279467 -0.01393,0.338079 -0.05861,0.05861 -0.100302,-0.04557 -0.09264,-0.23151 z m 51.645516,-0.911343 c -0.219405,-0.279764 -0.213166,-0.286002 0.0666,-0.0666 0.29382,0.23043 0.387259,0.375278 0.242084,0.375278 -0.03663,0 -0.175534,-0.138906 -0.308681,-0.30868 z M 100.72527,70.440697 V 60.210142 h 2.51714 2.51715 l 0.41025,1.367014 c 0.22564,0.751857 0.51422,1.684514 0.64129,2.072569 0.40249,1.229186 1.09954,3.450267 1.85445,5.909028 0.40211,1.309687 0.75815,2.460625 0.79121,2.557638 0.0331,0.09701 0.0664,-2.542204 0.074,-5.86493 l 0.0139,-6.041319 h 1.76389 1.76389 v 10.230555 10.230555 h -2.00432 -2.00433 l -0.3007,-1.014236 c -0.16539,-0.55783 -0.40729,-1.331736 -0.53755,-1.719791 -0.13026,-0.388056 -0.60547,-1.896181 -1.05601,-3.351389 -0.45054,-1.455208 -0.92683,-2.963333 -1.05843,-3.351389 -0.13159,-0.388055 -0.53247,-1.638684 -0.89084,-2.779176 -0.35837,-1.140494 -0.72261,-2.11752 -0.80942,-2.171174 -0.0919,-0.05679 -0.15784,2.928785 -0.15784,7.144801 v 7.242354 h -1.76389 -1.76389 z M 52.761421,57.990582 c 0.0085,-0.205484 0.05026,-0.247279 0.106567,-0.106568 0.05095,0.127329 0.04469,0.279465 -0.01392,0.338079 -0.05861,0.05861 -0.100302,-0.04557 -0.09264,-0.231511 z m 52.458049,-6.411007 c -2.55548,-0.405419 -4.14142,-2.396366 -4.14142,-5.199011 v -0.987088 h 1.85208 1.85208 l 10e-4,0.749653 c 0.002,1.339492 0.30538,2.071176 0.97567,2.351242 1.22578,0.512161 2.58903,0.195965 2.89111,-0.670567 0.37277,-1.069334 0.10045,-2.648459 -0.60457,-3.505699 -0.30013,-0.364939 -1.87961,-1.735097 -2.46345,-2.136976 -0.90177,-0.620728 -2.88028,-2.453202 -3.3596,-3.111623 -0.83088,-1.141345 -1.21866,-2.903925 -0.9565,-4.347557 0.49349,-2.717559 2.27904,-3.96875 5.66372,-3.96875 2.06191,0 3.48412,0.397826 4.31824,1.207913 0.92814,0.9014 1.4719,2.251276 1.4719,3.653982 v 1.147669 l -1.80799,-0.05027 -1.80798,-0.05027 -0.0524,-0.997436 c -0.0817,-1.555655 -0.9667,-2.284898 -2.43792,-2.008897 -1.00283,0.188133 -1.47843,0.787919 -1.47843,1.864476 0,1.511747 1.02885,2.829361 3.54408,4.538776 1.50428,1.022351 3.12554,2.747242 3.62431,3.855991 0.39495,0.877955 0.46652,1.284363 0.46572,2.644674 -8.8e-4,1.436041 -0.055,1.70667 -0.50845,2.53979 -0.90648,1.665491 -2.24302,2.388884 -4.68025,2.533155 -0.8114,0.04803 -1.87382,0.0241 -2.36094,-0.05318 z M 51.526699,50.582249 c 0.0085,-0.205484 0.05026,-0.247279 0.106567,-0.106568 0.05095,0.127329 0.04469,0.279465 -0.01392,0.338079 -0.05861,0.05861 -0.100302,-0.04557 -0.09264,-0.231511 z M 40.621145,50.067781 c 0.002,-0.388055 0.03808,-0.526035 0.08027,-0.306624 0.04219,0.219412 0.04059,0.536912 -0.0036,0.705556 -0.04415,0.168644 -0.07867,-0.01088 -0.07671,-0.398932 z M 51.35031,49.171138 c 0.0085,-0.205484 0.05026,-0.247279 0.106567,-0.106568 0.05095,0.127329 0.04469,0.279465 -0.01392,0.338079 -0.05861,0.05861 -0.100302,-0.04557 -0.09264,-0.231511 z m -10.905554,-3.33669 c 0.002,-0.388055 0.03808,-0.526036 0.08027,-0.306624 0.04219,0.219412 0.04059,0.536912 -0.0036,0.705556 -0.04415,0.168644 -0.07867,-0.01088 -0.07671,-0.398932 z m 26.567738,-0.220486 c -0.219405,-0.279763 -0.213166,-0.286002 0.0666,-0.0666 0.169774,0.133147 0.30868,0.272053 0.30868,0.30868 0,0.145175 -0.144849,0.05174 -0.375278,-0.242083 z m -0.705555,-0.705555 c -0.219405,-0.279764 -0.213166,-0.286003 0.0666,-0.0666 0.169774,0.133147 0.308681,0.272054 0.308681,0.308681 0,0.145175 -0.144849,0.05174 -0.375278,-0.242083 z M 50.644755,44.761416 c 0.0085,-0.205484 0.05026,-0.247279 0.106567,-0.106568 0.05095,0.127329 0.04469,0.279465 -0.01392,0.338079 -0.05861,0.05861 -0.100302,-0.04557 -0.09264,-0.231511 z m 14.956628,-0.558565 c -0.219405,-0.279763 -0.213166,-0.286002 0.0666,-0.0666 0.293819,0.230429 0.387258,0.375278 0.242083,0.375278 -0.03663,0 -0.175534,-0.138907 -0.308681,-0.308681 z m -4.938888,-0.529167 c -0.219405,-0.279763 -0.213166,-0.286002 0.0666,-0.0666 0.29382,0.230429 0.387258,0.375278 0.242083,0.375278 -0.03663,0 -0.175533,-0.138906 -0.30868,-0.308681 z m 4.233333,-0.176388 c -0.219405,-0.279764 -0.213166,-0.286003 0.0666,-0.0666 0.169774,0.133147 0.308681,0.272054 0.308681,0.308681 0,0.145175 -0.144849,0.05174 -0.375278,-0.242083 z m -1.058334,-1.058334 c -0.219404,-0.279763 -0.213166,-0.286002 0.0666,-0.0666 0.169774,0.133147 0.30868,0.272053 0.30868,0.30868 0,0.145175 -0.144848,0.05174 -0.375278,-0.242083 z M 40.278542,41.424726 c 9.88e-4,-0.582083 0.03392,-0.798943 0.07318,-0.48191 0.03926,0.317032 0.03845,0.793282 -0.0018,1.058333 -0.04025,0.265051 -0.07237,0.0057 -0.07138,-0.576423 z m 22.500619,-0.0441 c -0.219405,-0.279763 -0.213166,-0.286002 0.0666,-0.0666 0.169774,0.133147 0.30868,0.272053 0.30868,0.30868 0,0.145175 -0.144849,0.05174 -0.375278,-0.242083 z M 57.487495,40.67507 c -0.219405,-0.279763 -0.213166,-0.286002 0.0666,-0.0666 0.169774,0.133147 0.308681,0.272053 0.308681,0.308681 0,0.145175 -0.144849,0.05174 -0.375278,-0.242084 z m 4.586111,0 c -0.219405,-0.279763 -0.213166,-0.286002 0.0666,-0.0666 0.169774,0.133147 0.308681,0.272053 0.308681,0.308681 0,0.145175 -0.144849,0.05174 -0.375278,-0.242084 z m -0.788009,-0.79375 -0.336019,-0.396875 0.396875,0.33602 c 0.372964,0.315774 0.477174,0.45773 0.336019,0.45773 -0.03347,0 -0.212065,-0.178593 -0.396875,-0.396875 z m -5.729231,-0.970138 -0.427621,-0.48507 0.48507,0.427621 c 0.45337,0.399678 0.565959,0.542518 0.427621,0.542518 -0.03159,0 -0.249876,-0.218281 -0.48507,-0.485069 z m 4.753351,0 c -0.219405,-0.279764 -0.213166,-0.286003 0.0666,-0.0666 0.169775,0.133147 0.308681,0.272054 0.308681,0.308681 0,0.145175 -0.144849,0.05174 -0.375278,-0.242083 z m -0.705556,-0.705556 c -0.219405,-0.279763 -0.213166,-0.286002 0.0666,-0.0666 0.169774,0.133147 0.30868,0.272053 0.30868,0.30868 0,0.145175 -0.144849,0.05174 -0.375278,-0.242083 z m -0.705555,-0.705555 c -0.219405,-0.279764 -0.213166,-0.286003 0.0666,-0.0666 0.169774,0.133147 0.308681,0.272054 0.308681,0.308681 0,0.145175 -0.144849,0.05174 -0.375278,-0.242083 z m -6.35,-1.411112 c -0.219405,-0.279763 -0.213166,-0.286002 0.0666,-0.0666 0.293819,0.230429 0.387258,0.375278 0.242083,0.375278 -0.03663,0 -0.175534,-0.138906 -0.308681,-0.308681 z M 40.103953,34.810143 c 0,-0.63059 0.03201,-0.888559 0.07114,-0.573264 0.03913,0.315295 0.03913,0.831233 0,1.146528 -0.03913,0.315295 -0.07114,0.05733 -0.07114,-0.573264 z m 41.218541,-0.419375 c 0,-0.03663 0.138906,-0.175533 0.30868,-0.308681 0.279763,-0.219404 0.286002,-0.213166 0.0666,0.0666 -0.230429,0.29382 -0.375277,0.387258 -0.375277,0.242083 z M 39.919149,28.636532 c 0,-0.436562 0.0344,-0.615156 0.07644,-0.396875 0.04204,0.218282 0.04204,0.575469 0,0.79375 -0.04204,0.218281 -0.07644,0.03969 -0.07644,-0.396875 z m -0.173981,-4.321527 c 0.0013,-0.48507 0.03558,-0.662572 0.07612,-0.39445 0.04054,0.268122 0.03946,0.664997 -0.0024,0.881944 -0.04187,0.216948 -0.07504,-0.0024 -0.07372,-0.487494 z m 5.946772,0.411574 c 0,-0.08085 0.07469,-0.146991 0.165979,-0.146991 0.09129,0 0.20686,0.06615 0.256823,0.146991 0.04997,0.08085 -0.02472,0.146991 -0.165978,0.146991 -0.141252,0 -0.256824,-0.06615 -0.256824,-0.146991 z M 39.566371,19.46431 c 0,-0.436562 0.0344,-0.615156 0.07644,-0.396875 0.04204,0.218282 0.04204,0.575469 0,0.79375 -0.04204,0.218282 -0.07644,0.03969 -0.07644,-0.396875 z m -0.210505,-5.041782 c 0.0085,-0.205483 0.05026,-0.247279 0.106568,-0.106568 0.05095,0.127331 0.04469,0.279466 -0.01393,0.338079 -0.05861,0.05861 -0.100302,-0.04557 -0.09264,-0.231511 z"
           id="path314" /><path
           style="fill:#ffffff;fill-opacity:1;stroke-width:0.176389"
           d="m 82.633693,141.54996 c -4.804614,-2.08733 -10.572671,-6.09824 -8.082319,-12.20585 -0.09547,-4.20774 3.129891,-10.51307 -1.669028,-13.03148 -4.897259,-3.22528 -9.655553,-6.66532 -14.597748,-9.81849 2.944142,4.42292 6.322089,8.55013 9.337831,12.92632 -5.925791,-2.29772 -11.927565,-4.76196 -17.613518,-7.58471 0.005,-2.58418 0.454889,-7.86394 -0.0013,-9.02772 -1.205194,5.25945 -2.327621,10.55588 -3.608197,15.7868 -4.820519,-5.45145 -9.508418,-11.04611 -14.186572,-16.63114 1.83598,-5.466993 4.011336,-10.831617 5.702757,-16.335364 -2.882911,4.295235 -5.812521,8.563853 -8.813797,12.775882 -0.773278,-5.805848 -1.863312,-11.665362 -1.969401,-17.51161 2.19428,-3.641171 1.477452,-10.287426 5.576673,-12.056902 8.911199,-2.717528 17.965238,-5.033085 26.744748,-8.142905 4.221139,-2.905044 -2.366643,-8.77622 -2.872003,-12.908227 -1.858679,-4.403701 -3.820745,-8.763284 -5.592561,-13.203201 5.557879,5.230448 11.111871,10.478511 16.791291,15.571164 2.792585,-1.890795 0.640493,-3.457616 -1.039314,-4.962479 -7.00761,-6.8388 -13.830444,-13.874264 -20.951426,-20.590768 2.159563,9.118687 4.907377,18.137081 6.083356,27.468055 -0.228677,2.923945 3.778095,11.248395 -1.701801,7.549861 -3.116346,-1.346663 -6.226554,-2.707476 -9.330149,-4.08327 -0.367893,-13.705349 -1.07444,-27.417841 -1.245295,-41.118943 4.001397,0.664435 8.282998,3.391791 12.35981,4.872939 8.910593,3.757681 17.807678,7.55048 26.686228,11.384362 -0.505495,2.546493 -2.462685,11.107179 1.431284,5.284387 2.443394,-1.748121 3.488102,-6.475014 6.90033,-6.085417 2.349633,0 4.699265,0 7.048898,0 -0.05399,31.219162 0.134207,62.440511 -0.13684,93.657946 -1.678138,3.32012 -9.539503,-0.79804 -10.224215,4.98586 -1.086601,2.35238 -4.63346,6.43729 0.404087,4.68536 4.427408,-2.45819 8.684596,9.01713 3.935905,8.41674 -1.78823,0.0196 -3.583524,0.0778 -5.367746,-0.0672 z m 3.149973,-52.039882 c -3.737737,-3.274849 -6.943248,-7.832911 -12.41699,-7.904716 -3.584739,-0.54904 -8.405535,-1.945497 -11.290974,-1.73888 3.648909,4.034415 7.565668,7.81935 11.310373,11.7656 3.780314,-0.02641 7.560629,-0.05283 11.340943,-0.07924 1.475901,4.215133 1.918721,0.268124 1.330292,-1.808483 L 85.83853,89.55705 Z"
           id="path312" /></g><path
         style="opacity:1;fill:url(#radialGradient2500);fill-opacity:1;fill-rule:evenodd;stroke:none;stroke-width:0.580807;stroke-linecap:round;stroke-linejoin:round;stroke-opacity:1;paint-order:stroke fill markers"
         id="path1688"
         sodipodi:type="arc"
         sodipodi:cx="205.53392"
         sodipodi:cy="110.04993"
         sodipodi:rx="5.1398125"
         sodipodi:ry="5.1284676"
         sodipodi:start="0.18738728"
         sodipodi:end="0.17433186"
         sodipodi:open="true"
         sodipodi:arc-type="arc"
         d="m 210.58376,111.00532 a 5.1398125,5.1284676 0 0 1 -5.99086,4.08639 5.1398125,5.1284676 0 0 1 -4.11496,-5.96427 5.1398125,5.1284676 0 0 1 5.964,-4.12532 5.1398125,5.1284676 0 0 1 4.15389,5.93734" /></g></g></svg>
